HIERARCHY
ROOT newVegas:Hips
{
	OFFSET 0.000000 96.479958 0.000000
	CHANNELS 6 Xposition Yposition Zposition Xrotation Yrotation Zrotation
	JOINT newVegas:Pelvis
	{
		OFFSET 0.000000 0.000000 0.000000
		CHANNELS 3 Xrotation Yrotation Zrotation
		JOINT newVegas:LeftUpLeg
		{
			OFFSET 18.735201 -5.666702 -4.541200
			CHANNELS 3 Xrotation Yrotation Zrotation
			JOINT newVegas:LeftLeg
			{
				OFFSET -0.021200 -31.938179 0.493100
				CHANNELS 3 Xrotation Yrotation Zrotation
				JOINT newVegas:LeftFoot
				{
					OFFSET 0.021200 -31.938179 -4.336299
					CHANNELS 3 Xrotation Yrotation Zrotation
					JOINT newVegas:LeftToeBase
					{
						OFFSET 0.943001 -26.722000 15.023500
						CHANNELS 3 Xrotation Yrotation Zrotation
						End Site
						{
							OFFSET 0.000000 30.670183 0.000000
						}
					}
				}
				JOINT newVegas:Left_PantLeg
				{
					OFFSET 0.663870 -9.044666 -1.108900
					CHANNELS 3 Xrotation Yrotation Zrotation
					End Site
					{
						OFFSET 1.415995 20.635357 0.000000
					}
				}
			}
		}
		JOINT newVegas:RightUpLeg
		{
			OFFSET -18.735201 -5.666702 -4.541200
			CHANNELS 3 Xrotation Yrotation Zrotation
			JOINT newVegas:RightLeg
			{
				OFFSET 0.018946 -31.938133 0.493100
				CHANNELS 3 Xrotation Yrotation Zrotation
				JOINT newVegas:RightFoot
				{
					OFFSET -0.018946 -31.938126 -4.336299
					CHANNELS 3 Xrotation Yrotation Zrotation
					JOINT newVegas:RightToeBase
					{
						OFFSET -0.943001 -26.722004 15.023500
						CHANNELS 3 Xrotation Yrotation Zrotation
						End Site
						{
							OFFSET 0.000000 30.670187 0.000000
						}
					}
				}
				JOINT newVegas:Right_PantLeg
				{
					OFFSET -0.661674 -9.044716 -1.108900
					CHANNELS 3 Xrotation Yrotation Zrotation
					End Site
					{
						OFFSET -1.415958 20.635269 0.000000
					}
				}
			}
		}
	}
	JOINT newVegas:Spine
	{
		OFFSET 0.000000 10.199997 -0.299500
		CHANNELS 3 Xrotation Yrotation Zrotation
		JOINT newVegas:Spine1
		{
			OFFSET 0.000000 11.900002 -1.516600
			CHANNELS 3 Xrotation Yrotation Zrotation
			JOINT newVegas:Spine2
			{
				OFFSET 0.000000 13.600006 -2.842500
				CHANNELS 3 Xrotation Yrotation Zrotation
				JOINT newVegas:Neck
				{
					OFFSET 0.000000 9.624100 -2.890100
					CHANNELS 3 Xrotation Yrotation Zrotation
					JOINT newVegas:Head
					{
						OFFSET 0.000000 14.068802 -1.351900
						CHANNELS 3 Xrotation Yrotation Zrotation
						JOINT newVegas:Hair_Back
						{
							OFFSET 0.000000 3.231903 -17.524799
							CHANNELS 3 Xrotation Yrotation Zrotation
							End Site
							{
								OFFSET 0.000000 19.849884 0.000000
							}
						}
						JOINT newVegas:Hair_Front
						{
							OFFSET 0.000000 31.260406 4.573800
							CHANNELS 3 Xrotation Yrotation Zrotation
							JOINT newVegas:Hair_Front1
							{
								OFFSET 0.000000 2.284103 11.993300
								CHANNELS 3 Xrotation Yrotation Zrotation
								JOINT newVegas:Hair_Front2
								{
									OFFSET 0.000000 2.284103 11.993300
									CHANNELS 3 Xrotation Yrotation Zrotation
									End Site
									{
										OFFSET 0.000000 12.208862 0.000000
									}
								}
							}
						}
						JOINT newVegas:Jowel
						{
							OFFSET 0.000000 -7.458206 6.864100
							CHANNELS 3 Xrotation Yrotation Zrotation
							End Site
							{
								OFFSET 0.000000 19.849884 0.000000
							}
						}
					}
				}
				JOINT newVegas:LeftShoulder
				{
					OFFSET 15.263000 10.923401 -0.547700
					CHANNELS 3 Xrotation Yrotation Zrotation
					JOINT newVegas:LeftArm
					{
						OFFSET 25.438599 -2.830597 -13.032500
						CHANNELS 3 Xrotation Yrotation Zrotation
						JOINT newVegas:LeftForeArm
						{
							OFFSET 29.960503 0.000000 0.000000
							CHANNELS 3 Xrotation Yrotation Zrotation
							JOINT newVegas:LeftHand
							{
								OFFSET 27.849251 0.000000 0.000000
								CHANNELS 3 Xrotation Yrotation Zrotation
								JOINT newVegas:LeftHandThumb1
								{
									OFFSET 4.487587 -3.305161 6.305391
									CHANNELS 3 Xrotation Yrotation Zrotation
									JOINT newVegas:LeftHandThumb2
									{
										OFFSET 5.480453 -3.164139 3.164143
										CHANNELS 3 Xrotation Yrotation Zrotation
										JOINT newVegas:LeftHandThumb3
										{
											OFFSET 5.159721 -2.978973 2.978967
											CHANNELS 3 Xrotation Yrotation Zrotation
											End Site
											{
												OFFSET 2.494507 5.926697 1.738678
											}
										}
									}
								}
								JOINT newVegas:LeftHandIndex1
								{
									OFFSET 18.578728 -0.527832 5.208049
									CHANNELS 3 Xrotation Yrotation Zrotation
									JOINT newVegas:LeftHandIndex2
									{
										OFFSET 3.192009 0.000000 0.000000
										CHANNELS 3 Xrotation Yrotation Zrotation
										JOINT newVegas:LeftHandIndex3
										{
											OFFSET 3.835129 0.000000 0.000000
											CHANNELS 3 Xrotation Yrotation Zrotation
											End Site
											{
												OFFSET -0.034599 3.816971 0.371180
											}
										}
									}
								}
								JOINT newVegas:LeftHandMiddle1
								{
									OFFSET 18.476105 0.000000 0.000000
									CHANNELS 3 Xrotation Yrotation Zrotation
									JOINT newVegas:LeftHandMiddle2
									{
										OFFSET 3.324875 0.000000 0.000000
										CHANNELS 3 Xrotation Yrotation Zrotation
										JOINT newVegas:LeftHandMiddle3
										{
											OFFSET 4.596550 0.000000 0.000000
											CHANNELS 3 Xrotation Yrotation Zrotation
											End Site
											{
												OFFSET 0.057701 4.578827 0.399218
											}
										}
									}
								}
								JOINT newVegas:LeftHandRing1
								{
									OFFSET 17.732719 0.121887 -4.201567
									CHANNELS 3 Xrotation Yrotation Zrotation
									JOINT newVegas:LeftHandRing2
									{
										OFFSET 2.733170 0.000000 0.000000
										CHANNELS 3 Xrotation Yrotation Zrotation
										JOINT newVegas:LeftHandRing3
										{
											OFFSET 3.178268 0.000000 0.000000
											CHANNELS 3 Xrotation Yrotation Zrotation
											End Site
											{
												OFFSET 0.119102 3.170624 0.185394
											}
										}
									}
								}
								JOINT newVegas:LeftHandPinky1
								{
									OFFSET 15.989624 -0.606689 -7.535461
									CHANNELS 3 Xrotation Yrotation Zrotation
									JOINT newVegas:LeftHandPinky2
									{
										OFFSET 2.538986 0.000000 0.000000
										CHANNELS 3 Xrotation Yrotation Zrotation
										JOINT newVegas:LeftHandPinky3
										{
											OFFSET 2.593102 0.000000 0.000000
											CHANNELS 3 Xrotation Yrotation Zrotation
											End Site
											{
												OFFSET -0.150902 2.584198 0.152708
											}
										}
									}
								}
							}
							JOINT newVegas:Left_Sleeve
							{
								OFFSET 0.267448 -0.649796 0.577675
								CHANNELS 3 Xrotation Yrotation Zrotation
								End Site
								{
									OFFSET 0.000000 15.991241 0.000000
								}
							}
							JOINT newVegas:Left_CapeC
							{
								OFFSET 15.715958 -8.608795 -6.935905
								CHANNELS 3 Xrotation Yrotation Zrotation
								JOINT newVegas:Left_CapeC1
								{
									OFFSET 0.000000 -8.688499 0.000000
									CHANNELS 3 Xrotation Yrotation Zrotation
									End Site
									{
										OFFSET 0.000000 8.688499 0.000000
									}
								}
							}
						}
						JOINT newVegas:Left_CapeB
						{
							OFFSET 26.118385 -8.608795 -7.079235
							CHANNELS 3 Xrotation Yrotation Zrotation
							JOINT newVegas:Left_CapeB1
							{
								OFFSET 0.000000 -8.688499 0.000000
								CHANNELS 3 Xrotation Yrotation Zrotation
								End Site
								{
									OFFSET 0.000000 8.688499 0.000000
								}
							}
						}
						JOINT newVegas:Left_CapeA
						{
							OFFSET 5.115639 -8.608795 -10.395809
							CHANNELS 3 Xrotation Yrotation Zrotation
							JOINT newVegas:Left_CapeA1
							{
								OFFSET 0.000000 -8.688499 0.000000
								CHANNELS 3 Xrotation Yrotation Zrotation
								End Site
								{
									OFFSET 0.000000 8.688499 0.000000
								}
							}
						}
					}
				}
				JOINT newVegas:RightShoulder
				{
					OFFSET -15.263000 10.923401 -0.547700
					CHANNELS 3 Xrotation Yrotation Zrotation
					JOINT newVegas:RightArm
					{
						OFFSET -25.438599 -2.830597 -13.032500
						CHANNELS 3 Xrotation Yrotation Zrotation
						JOINT newVegas:RightForeArm
						{
							OFFSET -29.960503 0.000000 0.000000
							CHANNELS 3 Xrotation Yrotation Zrotation
							JOINT newVegas:RightHand
							{
								OFFSET -27.849251 0.000000 0.000000
								CHANNELS 3 Xrotation Yrotation Zrotation
								JOINT newVegas:RightHandThumb1
								{
									OFFSET -4.487587 -3.305161 6.305391
									CHANNELS 3 Xrotation Yrotation Zrotation
									JOINT newVegas:RightHandThumb2
									{
										OFFSET -5.480453 -3.164139 3.164143
										CHANNELS 3 Xrotation Yrotation Zrotation
										JOINT newVegas:RightHandThumb3
										{
											OFFSET -5.159721 -2.978973 2.978967
											CHANNELS 3 Xrotation Yrotation Zrotation
											End Site
											{
												OFFSET -2.494507 5.926697 1.738678
											}
										}
									}
								}
								JOINT newVegas:RightHandIndex1
								{
									OFFSET -18.578728 -0.527832 5.208049
									CHANNELS 3 Xrotation Yrotation Zrotation
									JOINT newVegas:RightHandIndex2
									{
										OFFSET -3.192009 0.000000 0.000000
										CHANNELS 3 Xrotation Yrotation Zrotation
										JOINT newVegas:RightHandIndex3
										{
											OFFSET -3.835129 0.000000 0.000000
											CHANNELS 3 Xrotation Yrotation Zrotation
											End Site
											{
												OFFSET 0.034599 3.816971 0.371180
											}
										}
									}
								}
								JOINT newVegas:RightHandMiddle1
								{
									OFFSET -18.476105 0.000000 0.000000
									CHANNELS 3 Xrotation Yrotation Zrotation
									JOINT newVegas:RightHandMiddle2
									{
										OFFSET -3.324875 0.000000 0.000000
										CHANNELS 3 Xrotation Yrotation Zrotation
										JOINT newVegas:RightHandMiddle3
										{
											OFFSET -4.596550 0.000000 0.000000
											CHANNELS 3 Xrotation Yrotation Zrotation
											End Site
											{
												OFFSET -0.057701 4.578827 0.399218
											}
										}
									}
								}
								JOINT newVegas:RightHandRing1
								{
									OFFSET -17.732719 0.121887 -4.201567
									CHANNELS 3 Xrotation Yrotation Zrotation
									JOINT newVegas:RightHandRing2
									{
										OFFSET -2.733170 0.000000 0.000000
										CHANNELS 3 Xrotation Yrotation Zrotation
										JOINT newVegas:RightHandRing3
										{
											OFFSET -3.178268 0.000000 0.000000
											CHANNELS 3 Xrotation Yrotation Zrotation
											End Site
											{
												OFFSET -0.119102 3.170624 0.185394
											}
										}
									}
								}
								JOINT newVegas:RightHandPinky1
								{
									OFFSET -15.989624 -0.606689 -7.535461
									CHANNELS 3 Xrotation Yrotation Zrotation
									JOINT newVegas:RightHandPinky2
									{
										OFFSET -2.538986 0.000000 0.000000
										CHANNELS 3 Xrotation Yrotation Zrotation
										JOINT newVegas:RightHandPinky3
										{
											OFFSET -2.593102 0.000000 0.000000
											CHANNELS 3 Xrotation Yrotation Zrotation
											End Site
											{
												OFFSET 0.150902 2.584198 0.152708
											}
										}
									}
								}
							}
							JOINT newVegas:Right_CapeC
							{
								OFFSET -15.715958 -8.608795 -6.935905
								CHANNELS 3 Xrotation Yrotation Zrotation
								JOINT newVegas:Right_CapeC1
								{
									OFFSET 0.000000 -8.688499 0.000000
									CHANNELS 3 Xrotation Yrotation Zrotation
									End Site
									{
										OFFSET 0.000000 8.688499 0.000000
									}
								}
							}
							JOINT newVegas:Right_Sleeve
							{
								OFFSET -0.267448 -0.649994 0.577675
								CHANNELS 3 Xrotation Yrotation Zrotation
								End Site
								{
									OFFSET 0.000000 15.991302 0.000000
								}
							}
						}
						JOINT newVegas:Right_CapeA
						{
							OFFSET -5.115540 -8.608795 -10.395824
							CHANNELS 3 Xrotation Yrotation Zrotation
							JOINT newVegas:Right_CapeA1
							{
								OFFSET 0.000000 -8.688499 0.000000
								CHANNELS 3 Xrotation Yrotation Zrotation
								End Site
								{
									OFFSET 0.000000 8.688499 0.000000
								}
							}
						}
						JOINT newVegas:Right_CapeB
						{
							OFFSET -26.118187 -8.608795 -7.079266
							CHANNELS 3 Xrotation Yrotation Zrotation
							JOINT newVegas:Right_CapeB1
							{
								OFFSET 0.000000 -8.688499 0.000000
								CHANNELS 3 Xrotation Yrotation Zrotation
								End Site
								{
									OFFSET 0.000000 8.688499 0.000000
								}
							}
						}
					}
				}
				JOINT newVegas:Left_Collar
				{
					OFFSET 18.625099 8.655502 8.828100
					CHANNELS 3 Xrotation Yrotation Zrotation
					JOINT newVegas:Left_Collar1
					{
						OFFSET 14.783401 10.540405 -1.259500
						CHANNELS 3 Xrotation Yrotation Zrotation
						End Site
						{
							OFFSET 0.000000 18.199875 0.000000
						}
					}
				}
				JOINT newVegas:Collar_Back
				{
					OFFSET 0.000000 15.630707 -20.132601
					CHANNELS 3 Xrotation Yrotation Zrotation
					End Site
					{
						OFFSET 0.000000 22.523010 0.000000
					}
				}
				JOINT newVegas:Left_Peck
				{
					OFFSET 17.239599 -5.132599 25.482599
					CHANNELS 3 Xrotation Yrotation Zrotation
					End Site
					{
						OFFSET 0.000000 22.523010 0.000000
					}
				}
				JOINT newVegas:Right_Peck
				{
					OFFSET -17.239599 -5.132202 25.482599
					CHANNELS 3 Xrotation Yrotation Zrotation
					End Site
					{
						OFFSET 0.000000 22.523010 0.000000
					}
				}
				JOINT newVegas:Right_Collar
				{
					OFFSET -18.625099 8.655792 8.828100
					CHANNELS 3 Xrotation Yrotation Zrotation
					JOINT newVegas:Right_Collar1
					{
						OFFSET -14.783401 10.539993 -1.259500
						CHANNELS 3 Xrotation Yrotation Zrotation
						End Site
						{
							OFFSET 0.000000 18.199631 0.000000
						}
					}
				}
			}
		}
		JOINT newVegas:Belly
		{
			OFFSET 0.000000 -6.540398 9.014299
			CHANNELS 3 Xrotation Yrotation Zrotation
			End Site
			{
				OFFSET 0.000000 11.566666 0.000000
			}
		}
	}
	JOINT newVegas:ElvisFacialAnim_Joint
	{
		OFFSET 1.000000 -95.330101 -8.825800
		CHANNELS 3 Xrotation Yrotation Zrotation
		End Site
		{
			OFFSET 0.000000 35.315800 0.000000
		}
	}
}
MOTION
Frames: 4
Frame Time: 0.033333
-79.409309 72.135719 -39.735886 -5.839271 -28.437233 -6.268188 0.000000 0.000001 0.000000 -33.090928 -18.433740 32.737575 87.265413 -14.666778 3.635358 -25.493061 12.484327 -27.582153 0.000001 0.000000 -0.000001 0.000001 0.000000 0.000001 -20.807014 13.519742 -37.734534 51.215040 11.103710 -10.274447 -13.576260 12.465965 43.227502 -0.000001 -0.000000 -0.000000 -0.000001 -0.000001 -0.000000 52.090868 -1.019435 2.847842 6.972592 -1.114811 1.298785 6.954400 -1.260294 1.462457 -1.332533 -0.140497 0.296499 -1.332523 -0.140497 0.296501 -0.000001 -0.000001 -0.000001 -1.332481 -0.140476 0.296498 -1.332517 -0.140482 0.296488 -0.000002 0.000000 0.000001 -0.000001 -0.000001 -0.000001 0.492633 -5.026416 -6.995354 0.006986 37.139072 -69.583857 -0.000014 -0.426772 0.000003 7.809582 -13.046320 4.588276 6.304427 -11.001716 7.645263 7.401197 13.559907 3.792024 0.000003 -0.000001 0.000001 2.587768 -8.209116 -3.107224 0.215050 1.574262 -15.556355 -0.000001 -0.000002 -0.000000 -0.571079 0.127337 -12.632704 0.176832 1.429903 -14.098207 0.000001 0.000005 -0.000001 0.850085 5.574853 -19.559217 0.384435 2.089030 -20.851721 0.000000 0.000003 -0.000001 2.861333 18.616797 -27.835780 0.177632 1.433075 -14.130259 0.000001 -0.000002 0.000000 0.000002 0.000003 -0.000002 0.000002 0.000003 -0.000002 0.000001 0.000002 -0.000002 -0.000001 0.000001 -0.000001 -0.000001 0.000000 -0.000002 -0.000001 0.000001 -0.000001 -0.000003 -0.000001 -0.000001 2.049578 19.303305 6.079445 -5.615976 -47.819920 62.787661 0.000005 1.512923 0.000003 -27.810505 1.547248 2.376339 -13.232695 18.493048 -1.031243 8.088683 -19.560866 -4.849259 0.000001 0.000003 -0.000000 2.232455 6.501181 4.313245 0.148483 -1.167826 14.491648 -0.000002 -0.000002 -0.000000 -0.620948 0.418153 12.008566 0.291056 -1.622163 20.343095 0.000001 0.000003 0.000001 0.558740 -4.601049 17.762677 0.286463 -1.609716 20.180173 -0.000000 0.000001 -0.000000 2.096537 -17.172330 30.145760 0.181539 -1.288904 16.033422 -0.000001 0.000005 -0.000000 -0.000000 0.000001 -0.000001 0.000001 0.000001 0.000001 -0.000000 0.000001 0.000001 -0.000002 0.000002 0.000001 -0.000001 0.000002 0.000002 -0.000002 0.000002 0.000001 -0.000001 0.000002 0.000002 -0.000001 -0.000001 0.000000 -0.000001 -0.000001 0.000000 -0.000001 -0.000001 0.000000 -0.000001 -0.000001 0.000000 -0.000001 -0.000001 0.000000 -0.000001 -0.000001 0.000000 -0.000001 -0.000001 0.000000 -0.000000 -0.000001 0.000000 0.000000 0.000001 0.000000 
-76.156708 75.286003 -36.406006 -4.538770 -27.414183 -5.203861 -0.000000 -0.000001 -0.000000 -31.451679 -12.147416 28.107413 83.406992 -14.058083 3.263764 -31.040430 13.340692 -21.300071 0.000001 0.000002 -0.000001 -0.000000 0.000000 -0.000006 -20.515170 11.862223 -36.549292 44.640013 9.709304 -10.845287 1.328248 15.048606 37.013079 -0.000003 0.000000 -0.000001 0.000004 0.000001 -0.000002 48.195089 -2.505774 4.954646 6.386469 -1.701057 1.559960 6.355245 -1.829128 1.750546 -1.277040 -0.073500 0.324472 -1.277053 -0.073493 0.324461 -0.000003 -0.000001 0.000002 -1.277047 -0.073499 0.324474 -1.277043 -0.073495 0.324462 0.000002 -0.000004 0.000004 -0.000003 -0.000001 0.000002 0.270439 -10.122597 -7.833227 -0.433124 39.960462 -64.530282 0.000013 -5.915135 -0.000005 -3.594052 -13.210543 0.582604 8.064239 -8.987876 6.731376 7.396503 13.559971 3.796470 -0.000002 -0.000003 -0.000005 2.540927 -7.979594 -5.295226 0.414637 2.166667 -21.665644 -0.000000 -0.000003 0.000001 -0.711855 0.665224 -16.995789 0.297497 1.844884 -18.319722 0.000000 0.000002 0.000001 1.245941 6.109726 -26.342117 0.558418 2.498171 -25.197731 0.000000 0.000001 -0.000000 3.266670 19.615571 -35.129995 0.338255 1.963584 -19.545765 -0.000001 -0.000003 0.000000 0.000001 -0.000000 0.000001 0.000001 -0.000000 0.000001 0.000001 -0.000001 0.000001 0.000002 -0.000002 -0.000003 0.000002 -0.000003 -0.000004 0.000002 -0.000002 -0.000003 0.000001 -0.000003 -0.000004 2.373686 16.076121 4.623385 -15.029068 -47.322197 49.456365 0.000004 4.243955 0.000001 -34.771991 1.851469 -0.545634 -12.694264 17.639491 1.397916 8.270149 -21.816130 -5.061426 0.000001 0.000001 0.000001 2.590818 6.059925 10.905339 0.341331 -1.751741 22.050711 -0.000000 -0.000000 0.000001 -0.865433 -0.225383 18.207216 0.436258 -1.969820 24.973543 0.000001 -0.000000 0.000002 0.718048 -4.835917 22.165839 0.474703 -2.050284 26.069580 -0.000001 0.000001 -0.000002 2.198568 -17.322080 31.435485 0.318712 -1.694865 21.298801 -0.000000 0.000002 -0.000001 -0.000001 0.000000 -0.000000 -0.000001 -0.000001 0.000000 -0.000001 0.000000 0.000002 0.000003 0.000000 0.000001 0.000003 0.000000 0.000001 0.000003 0.000000 0.000001 0.000003 -0.000000 0.000001 -0.000002 -0.000001 0.000000 -0.000002 -0.000001 0.000000 -0.000002 -0.000001 0.000000 -0.000002 -0.000001 0.000000 -0.000002 -0.000001 0.000000 -0.000002 -0.000001 0.000000 -0.000002 -0.000001 0.000000 -0.000000 -0.000001 -0.000001 -0.000000 -0.000001 -0.000000 
-71.679184 79.937637 -32.221298 -1.503620 -28.368680 -3.367444 0.000000 -0.000002 0.000000 -30.767140 -4.988329 20.389165 77.197721 -11.616957 3.506812 -31.033873 14.936715 -14.080282 0.000000 0.000000 -0.000000 -0.000003 0.000001 0.000002 -25.859134 12.036199 -27.346834 45.421520 7.468504 -11.565662 16.643443 4.161110 15.441063 0.000000 -0.000002 0.000002 0.000002 0.000000 -0.000002 42.884429 -3.664916 6.308092 5.369278 -2.059511 1.714504 5.328862 -2.171226 1.893225 -1.084082 0.016395 0.242417 -1.084093 0.016404 0.242407 -0.000001 -0.000002 0.000004 -1.084081 0.016411 0.242407 -1.084044 0.016395 0.242399 -0.000002 -0.000000 0.000001 -0.000001 -0.000002 0.000002 0.154337 -14.070264 -8.346136 -2.885228 43.854073 -58.160468 0.000003 -16.577414 -0.000006 -2.550547 -16.063051 6.979903 9.040908 -7.803702 6.125460 7.392079 13.560035 3.800818 -0.000000 0.000001 -0.000003 2.505054 -7.833560 -6.514003 0.558660 2.498638 -25.202860 0.000003 -0.000002 -0.000001 -0.772991 0.981595 -19.521372 0.381895 2.082383 -20.782227 -0.000000 -0.000002 -0.000001 1.503179 6.400854 -30.278116 0.673111 2.728367 -27.712265 -0.000002 -0.000004 0.000001 3.625223 20.254567 -39.360833 0.454370 2.264035 -22.693450 0.000001 -0.000002 -0.000000 0.000000 -0.000001 -0.000000 0.000000 -0.000001 -0.000000 -0.000000 -0.000001 0.000000 0.000002 0.000001 -0.000003 0.000001 0.000002 -0.000003 0.000002 0.000001 -0.000003 0.000001 0.000000 -0.000003 2.455043 14.743762 2.896222 -24.086100 -43.410179 36.548277 0.000004 8.767312 0.000008 -32.062735 0.195230 -5.140676 -12.232234 16.978322 3.081405 8.395278 -23.392310 -5.205051 0.000000 -0.000002 -0.000004 2.874009 5.855231 15.557376 0.523959 -2.147973 27.414166 0.000001 -0.000000 -0.000001 -0.992891 -0.692347 22.588885 0.556152 -2.208892 28.261016 0.000002 0.000000 -0.000001 0.837840 -4.995649 25.278515 0.634867 -2.349314 30.240202 0.000000 0.000001 0.000001 2.276661 -17.428826 32.364694 0.438721 -1.975093 25.044994 0.000001 0.000001 0.000002 -0.000001 0.000000 0.000001 -0.000000 -0.000000 -0.000002 -0.000001 0.000000 -0.000000 0.000001 -0.000001 0.000001 0.000001 0.000000 0.000001 0.000001 -0.000001 0.000001 0.000001 -0.000000 0.000001 -0.000000 -0.000000 -0.000000 -0.000000 -0.000000 -0.000000 -0.000000 -0.000000 -0.000000 -0.000000 -0.000000 -0.000000 -0.000000 -0.000000 -0.000000 -0.000000 -0.000000 -0.000000 -0.000000 -0.000000 -0.000000 0.000001 0.000001 -0.000002 0.000000 -0.000002 0.000000 
-67.514900 84.632576 -28.933348 -0.774433 -30.442959 -2.002689 -0.000000 -0.000001 0.000000 -26.548133 0.687669 13.777707 67.235576 -7.314426 3.546838 -25.698771 13.196050 -11.306592 0.000000 -0.000001 -0.000001 0.000001 0.000000 -0.000001 -29.575829 11.631085 -20.531803 45.931653 10.334180 -9.974758 23.099428 3.829235 10.889674 -0.000003 0.000001 -0.000001 0.000000 0.000002 -0.000000 40.754161 -5.628470 6.495956 4.813967 -2.443016 1.389606 4.779483 -2.519822 1.556321 -0.955497 0.135939 0.222196 -0.955505 0.135931 0.222193 -0.000001 0.000001 -0.000000 -0.955498 0.135953 0.222194 -0.955471 0.135938 0.222196 -0.000001 -0.000001 0.000000 -0.000001 0.000001 -0.000000 0.318365 -15.519289 -7.884688 -8.919878 46.326564 -47.107746 -0.000005 -27.829848 0.000007 -3.606510 -21.181603 5.297701 9.566238 -7.120308 5.734206 7.387819 13.560093 3.805095 0.000001 -0.000000 -0.000006 2.469137 -7.734952 -7.148255 0.649001 2.682038 -27.201655 -0.000000 0.000002 0.000001 -0.801010 1.163261 -20.961429 0.434816 2.216713 -22.192951 0.000004 -0.000001 0.000001 1.660915 6.562997 -32.537570 0.742397 2.856217 -29.134408 -0.000005 -0.000002 0.000002 3.898386 20.623403 -41.772611 0.527765 2.431961 -24.484652 -0.000001 -0.000002 -0.000000 0.000001 -0.000002 -0.000002 0.000001 -0.000002 -0.000002 0.000000 -0.000001 -0.000002 0.000000 0.000000 0.000006 -0.000000 0.000000 0.000003 0.000000 0.000000 0.000006 -0.000001 -0.000001 0.000006 2.118852 17.146423 2.993362 -32.608317 -36.856975 23.912931 -0.000005 13.153974 0.000002 -28.774685 2.345772 -6.568665 -11.978607 16.616508 3.878369 8.449360 -24.086160 -5.265531 0.000000 -0.000005 -0.000003 3.012578 5.773503 17.753987 0.622831 -2.328589 29.945182 -0.000001 -0.000000 0.000001 -1.043858 -0.909931 24.681474 0.618729 -2.321444 29.844105 -0.000002 -0.000000 -0.000001 0.889472 -5.055786 26.740874 0.718795 -2.487600 32.228818 -0.000000 0.000001 0.000001 2.332440 -17.490048 32.853568 0.502661 -2.106424 26.840371 -0.000001 0.000002 -0.000001 -0.000001 0.000003 -0.000000 0.000001 0.000001 0.000001 -0.000001 0.000002 -0.000000 -0.000001 0.000000 0.000003 -0.000001 0.000001 0.000002 -0.000001 0.000000 0.000003 -0.000001 0.000001 0.000002 -0.000002 0.000000 0.000001 -0.000002 0.000000 0.000001 -0.000002 0.000000 0.000001 -0.000002 0.000000 0.000001 -0.000002 0.000000 0.000001 -0.000002 0.000000 0.000001 -0.000002 0.000000 0.000001 -0.000001 0.000000 -0.000001 -0.000000 -0.000001 0.000000 
